HIERARCHY
ROOT Hips
{
  OFFSET 89.245 92.8685 40.8097
  CHANNELS 6 Xposition Yposition Zposition Zrotation Xrotation Yrotation
  JOINT ToSpine
  {
    OFFSET -2.69724 7.43032 -0.144315
    CHANNELS 3 Zrotation Xrotation Yrotation
    JOINT Spine
    {
      OFFSET -0.0310711 10.7595 1.96963
      CHANNELS 3 Zrotation Xrotation Yrotation
      JOINT Spine1
      {
        OFFSET 13.1342 3.43533 0.764692
        CHANNELS 3 Zrotation Xrotation Yrotation
        JOINT Neck
        {
          OFFSET 29.8703 7.82586 -0.130764
          CHANNELS 3 Zrotation Xrotation Yrotation
          JOINT Head
          {
            OFFSET 9.52751 0.295786 -0.907742
            CHANNELS 3 Zrotation Xrotation Yrotation
            End Site
            {
              OFFSET 16.4037 0.713936 2.7358
            }
          }
        }
        JOINT LeftShoulder
        {
          OFFSET 27.5574 4.95586 2.47156
          CHANNELS 3 Zrotation Xrotation Yrotation
          JOINT LeftArm
          {
            OFFSET 1.20734 -0.998971 20.1238
            CHANNELS 3 Zrotation Xrotation Yrotation
            JOINT LeftForeArm
            {
              OFFSET 26.8049 -0.0536703 -0.155908
              CHANNELS 3 Zrotation Xrotation Yrotation
              JOINT LeftHand
              {
                OFFSET 26.6817 0 0.320147
                CHANNELS 3 Zrotation Xrotation Yrotation
                End Site
                {
                  OFFSET 18.6119 0 0.382219
                }
              }
            }
          }
        }
        JOINT RightShoulder
        {
          OFFSET 27.5927 4.71444 -2.65209
          CHANNELS 3 Zrotation Xrotation Yrotation
          JOINT RightArm
          {
            OFFSET 2.83739 -1.17114 -18.7564
            CHANNELS 3 Zrotation Xrotation Yrotation
            JOINT RightForeArm
            {
              OFFSET 28.839 -0.0548439 1.22491
              CHANNELS 3 Zrotation Xrotation Yrotation
              JOINT RightHand
              {
                OFFSET 26.5114 0 -0.101894
                CHANNELS 3 Zrotation Xrotation Yrotation
                End Site
                {
                  OFFSET 18.2168 0 0
                }
              }
            }
          }
        }
      }
    }
  }
  JOINT LeftUpLeg
  {
    OFFSET -4.76168 -1.9167 -10.2353
    CHANNELS 3 Zrotation Xrotation Yrotation
    JOINT LeftLeg
    {
      OFFSET 2.55951 -42.0585 -8.02213
      CHANNELS 3 Zrotation Xrotation Yrotation
      JOINT LeftFoot
      {
        OFFSET 3.16357 -42.5282 -3.95426
        CHANNELS 3 Zrotation Xrotation Yrotation
        JOINT LeftToeBase
        {
          OFFSET 0.346054 -6.02161 12.8035
          CHANNELS 3 Zrotation Xrotation Yrotation
          End Site
          {
            OFFSET 0.134235 -1.35082 5.13018
          }
        }
      }
    }
  }
  JOINT RightUpLeg
  {
    OFFSET -4.94151 -1.41743 10.6446
    CHANNELS 3 Zrotation Xrotation Yrotation
    JOINT RightLeg
    {
      OFFSET -2.56294 -42.0364 -7.94377
      CHANNELS 3 Zrotation Xrotation Yrotation
      JOINT RightFoot
      {
        OFFSET -3.0952 -42.555 -4.02241
        CHANNELS 3 Zrotation Xrotation Yrotation
        JOINT RightToeBase
        {
          OFFSET -0.0828122 -6.13587 12.8035
          CHANNELS 3 Zrotation Xrotation Yrotation
          End Site
          {
            OFFSET -0.131328 -1.35082 5.13018
          }
        }
      }
    }
  }
}
MOTION
Frames:	18
Frame Time:	0.0333333
89.5534 94.2061 38.6522 -62.8074 -47.6799 -159.742 -70.1915 0 88.8779 86.2895 74.1895 6.89951 7.59503 25.6264 -6.66679 -128.664 10.6495 -168.846 -143.526 43.7629 -178.664 -0.0115829 -16.0405 -28.3317 -133.242 23.0461 -61.3391 1.53742 -0.488884 -105.762 0.420957 0.000575441 0.35866 -1.18411 7.55143 29.9081 -54.856 -34.4646 151.541 10.3074 3.85769 109.886 0.58676 0.00033104 0.0646653 -40.3832 13.6552 98.6433 -1.96978 32.0732 -5.9532 -2.75348 -1.03023 0.160262 0.0993745 -0.312173 0.170377 -52.3039 -7.70935 81.3022 1.75627 38.5715 1.13682 -4.11603 -18.2978 1.46399 2.34767 -11.673 -15.6229 
89.7534 94.2321 38.7222 -62.8525 -47.1949 -160.437 -70.1915 0 88.8779 86.5361 74.13 6.21608 6.89886 25.3481 -5.47455 -129.215 11.7942 -164.129 -146.872 44.7314 -174.386 0.0485339 -15.276 -29.9611 -133.188 21.9925 -61.9142 0.99954 -0.344309 -106.432 0.420957 0.000575441 0.35866 -1.20245 8.88047 27.2391 -52.0672 -36.5348 154.357 10.4529 3.8441 109.566 0.58676 0.00033104 0.0646653 -40.6709 13.2943 99.2839 -1.93465 31.7061 -5.5802 -2.68024 -1.04155 0.1503 0.00396072 -0.0231165 -0.0193773 -51.9872 -8.42818 81.3606 1.84081 38.806 1.51087 -6.28867 -19.1928 1.41025 2.56728 -13.6434 -20.7707 
89.9273 94.1268 38.7461 -63.0829 -46.8645 -161.033 -70.1915 0 88.8779 87.9857 73.9552 5.24119 6.62058 25.1778 -5.51459 -130.513 12.328 -160.137 -150.426 45.211 -170.755 0.165934 -14.523 -30.7692 -133.574 21.9936 -61.8894 0.325482 -0.143013 -107.162 0.420957 0.000575441 0.35866 -1.14205 10.0656 24.732 -49.5266 -38.2559 157.645 10.4863 3.79155 109.261 0.58676 0.00033104 0.0646653 -40.6243 13.2513 99.8815 -1.97798 32.1794 -5.74624 -2.7069 -1.30524 0.126653 0.0369088 -0.470122 0.873826 -51.8577 -9.4624 80.4993 1.44616 39.1473 -1.88976 -7.57066 -19.8308 1.37262 2.49436 -12.9205 -18.2876 
90.0276 94.0938 38.7994 -63.1879 -46.9556 -160.763 -70.1915 0 88.8779 89.1978 74.1238 5.05537 6.39274 25.6399 -6.41197 -129.533 11.8578 -162.279 -148.684 44.7023 -172.864 0.137661 -14.79 -30.145 -133.061 22.7725 -61.9199 0.245409 -0.118132 -107.403 0.420957 0.000575441 0.35866 -1.20627 9.40646 26.3975 -50.8413 -36.9269 156.141 9.91831 3.69144 109.784 0.58676 0.00033104 0.0646653 -40.3038 13.675 100.035 -2.0362 32.8265 -6.27577 -2.74021 -1.58928 0.101561 0.0226431 -0.718028 1.56531 -52.099 -9.82997 79.423 1.72744 39.1906 0.320541 -6.3241 -18.1594 1.38237 2.81342 -8.98922 -20.8561 
89.9632 93.8679 38.7259 -63.2404 -47.4329 -160.833 -70.1915 0 88.8779 88.3345 73.9608 5.52039 6.81555 25.2661 -5.80624 -130.73 11.6493 -160.438 -150.629 44.5548 -171.486 0.193868 -14.4077 -30.631 -133.181 23.0841 -61.4469 0.187296 -0.104367 -108.192 0.420957 0.000575441 0.35866 -1.08786 9.57244 24.8466 -49.6993 -36.9482 158.032 10.021 3.69719 109.625 0.58676 0.00033104 0.0646653 -39.862 13.5497 99.8255 -2.10795 33.7794 -6.47736 -2.4647 -1.85568 0.0432901 0.0893985 -1.00646 1.94606 -52.0104 -9.87264 79.8467 1.5424 39.5891 -1.43038 -6.05559 -17.6794 1.38349 2.40178 -8.96787 -15.7666 
89.8967 93.8207 38.7071 -63.5528 -47.746 -161.21 -70.1915 0 88.8779 88.8949 74.1874 4.77847 6.5675 25.6664 -6.34522 -129.232 11.025 -163.111 -148.335 43.846 -173.85 0.264981 -14.1877 -29.9421 -132.347 24.1716 -61.3486 0.391562 -0.17267 -108.168 0.420957 0.000575441 0.35866 -1.18712 8.98934 26.8893 -51.0468 -35.3617 155.902 9.50777 3.63392 110.273 0.58676 0.00033104 0.0646653 -40.0795 13.193 99.5588 -2.14821 33.9237 -6.79218 -2.46961 -1.37609 0.0917379 0.31918 -2.11462 3.62863 -52.3486 -10.2716 79.5806 1.46149 39.6186 -2.21463 -5.29636 -17.8954 1.41038 2.09209 -8.8381 -11.9791 
89.7952 93.8825 38.7475 -63.6525 -47.833 -161.141 -70.1915 0 88.8779 89.1853 74.163 4.59989 6.30929 25.6892 -6.36077 -128.73 10.9721 -163.304 -147.966 43.6926 -173.996 0.189461 -14.4794 -30.4127 -132.163 23.4786 -60.4371 -0.415711 0.105765 -108.637 0.420957 0.000575441 0.35866 -1.19378 8.9991 26.9814 -50.5521 -35.0934 155.593 9.86504 3.78701 110.355 0.58676 0.00033104 0.0646653 -40.2566 13.2097 99.3458 -2.13527 33.786 -6.7646 -2.1275 -1.1854 0.0699346 0.335218 -2.18263 3.74591 -52.8612 -10.5413 78.5573 1.54916 39.1633 -1.18987 -5.56589 -17.5932 1.39352 2.1034 -9.29622 -12.0373 
89.6235 93.8506 38.7398 -63.8117 -47.8264 -161.162 -70.1915 0 88.8779 89.4622 74.1696 4.32852 6.20895 25.717 -6.40422 -128.823 11.0831 -163.01 -148.251 43.8313 -173.556 0.1902 -14.4646 -30.4502 -132.019 23.5085 -59.6986 -0.714645 0.214504 -108.924 0.420957 0.000575441 0.35866 -1.20345 9.10296 26.9122 -50.2692 -35.0477 155.477 9.71627 3.67447 110.077 0.58676 0.00033104 0.0646653 -40.3154 13.3151 99.0547 -2.12972 33.9352 -6.60892 -2.10624 -1.19703 0.0662986 0.397758 -2.41291 4.04267 -53.0628 -10.2886 78.614 1.59743 39.127 -0.797905 -5.54549 -17.7444 1.39847 2.20649 -9.55999 -13.2915 
89.4249 93.8871 38.81 -63.8777 -47.7594 -161.045 -70.1915 0 88.8779 89.5656 74.2017 4.11373 5.93831 25.7244 -6.06253 -129.146 11.3383 -162.511 -148.747 44.1544 -172.884 0.346152 -13.7192 -30.2627 -131.771 24.3671 -59.6682 -0.0527663 -0.0201613 -108.882 0.420957 0.000575441 0.35866 -1.21382 9.35129 26.603 -49.9304 -35.0719 155.363 10.4246 3.88176 109.792 0.58676 0.00033104 0.0646653 -40.4068 13.5308 98.9263 -2.11375 33.9685 -6.47788 -1.73307 -1.11843 0.0291685 0.442193 -2.48503 3.99789 -53.3455 -10.4339 77.7942 1.69648 39.151 -0.00953294 -4.74184 -17.8542 1.42464 2.22204 -8.74031 -13.5329 
89.2582 93.7915 38.8812 -63.9017 -47.6648 -160.952 -70.1915 0 88.8779 88.8624 74.3297 4.79943 6.24857 25.8834 -6.28376 -129.529 11.3662 -163.177 -148.537 44.3344 -173.532 0.3853 -13.5684 -29.9646 -130.941 24.4019 -59.8269 -0.393891 0.101824 -108.799 0.420957 0.000575441 0.35866 -1.19922 9.18427 26.7203 -49.8489 -35.0902 155.416 10.8651 4.10202 110.042 0.58676 0.00033104 0.0646653 -40.1094 13.7966 98.7962 -2.16342 34.7038 -6.50581 -1.51769 -1.55898 -0.0367234 0.298521 -2.31471 4.32824 -53.4598 -10.1515 77.8938 1.62859 38.9942 -0.419 -5.49898 -18.1415 1.41151 2.23246 -8.95785 -13.6395 
89.1082 93.6798 39.0841 -63.8164 -47.7614 -160.481 -70.1915 0 88.8779 88.1825 74.2339 5.76621 6.55666 25.7993 -6.3832 -130.049 11.3618 -162.964 -149.217 44.4584 -173.27 0.364686 -13.6569 -30.0689 -130.585 23.8292 -60.0688 -0.689323 0.206067 -108.666 0.420957 0.000575441 0.35866 -1.20286 9.26986 26.6163 -49.9201 -35.2116 155.473 10.6184 4.0321 110.151 0.58676 0.00033104 0.0646653 -39.5173 13.9396 97.9924 -2.23798 35.842 -6.54123 -1.29162 -1.95423 -0.0985955 0.288022 -2.76437 5.68958 -53.9335 -10.3781 76.5652 1.73229 38.6973 0.240907 -6.39447 -17.8228 1.37774 2.19869 -10.424 -13.1259 
89.0356 93.5272 39.4218 -63.6517 -47.9381 -159.956 -70.1915 0 88.8779 89.3201 74.1676 4.8876 6.09563 25.7742 -6.3195 -129.991 11.4451 -163.069 -149.324 44.5946 -173.08 0.382755 -13.6014 -29.844 -130.502 24.0863 -59.9747 -0.467902 0.128604 -108.562 0.420957 0.000575441 0.35866 -1.17355 9.13856 26.5036 -49.7133 -35.3547 155.564 11.016 4.19877 110.216 0.58676 0.00033104 0.0646653 -38.6614 14.1164 97.5501 -2.38342 37.485 -6.81389 -0.540517 -2.62897 -0.237358 0.178864 -2.93825 6.84555 -54.1707 -10.2395 76.3354 1.80046 38.8583 0.640338 -5.8805 -17.7351 1.38873 2.26497 -11.0903 -14.0219 
89.0572 93.2358 39.898 -63.5778 -48.5578 -159.508 -70.1915 0 88.8779 91.0852 73.9632 2.94052 5.50257 25.4774 -5.73219 -130.072 11.7958 -163.008 -149.754 45.0331 -172.682 0.361051 -13.6792 -30.0479 -130.275 23.9572 -60.0825 -0.810216 0.2512 -108.772 0.420957 0.000575441 0.35866 -1.14244 9.09006 26.2247 -49.7698 -35.3352 155.683 11.4076 4.32835 110.127 0.58676 0.00033104 0.0646653 -37.3643 14.0668 96.7634 -2.57626 40.2738 -6.6771 -0.714588 -3.86962 -0.325661 0.326091 -3.08067 6.45237 -54.6004 -10.184 76.5076 1.78827 39.2056 0.446731 -5.26875 -18.5285 1.43181 2.33671 -11.0391 -15.1271 
89.2006 92.9511 40.5929 -63.2572 -48.6855 -158.983 -70.1915 0 88.8779 91.5625 73.8466 2.80344 5.29728 25.4123 -5.76822 -130.302 10.9626 -163.568 -148.334 43.9585 -174.884 0.383459 -13.5744 -29.9983 -129.985 23.8134 -60.5502 -0.90481 0.284131 -108.691 0.420957 0.000575441 0.35866 -1.16292 9.13821 26.3821 -50.4816 -34.7268 154.924 11.1995 4.27649 110.248 0.58676 0.00033104 0.0646653 -35.4951 14.4032 96.3547 -3.08172 43.8804 -7.82528 -1.93027 -4.61584 -0.281197 0.727472 -4.47046 8.53072 -54.4785 -10.2095 77.1303 1.76986 39.984 -0.0745791 -3.41265 -19.3645 1.54025 2.3391 -10.7762 -15.1316 
89.364 92.5232 41.5797 -63.2355 -49.4429 -158.324 -70.1915 0 88.8779 93.2324 73.4172 1.51316 5.13097 25.08 -6.03232 -130.239 11.938 -164.272 -149.503 45.4541 -173.264 0.258384 -14.2814 -29.6117 -130.271 23.9739 -59.6158 -0.511525 0.149817 -109.328 0.420957 0.000575441 0.35866 -1.177 9.00341 26.7773 -51.1239 -34.4835 154.113 10.7191 4.1566 110.542 0.58676 0.00033104 0.0646653 -33.2696 14.8489 95.4815 -3.77473 48.6007 -8.59228 -2.42262 -5.58837 -0.334944 0.887004 -5.03527 9.58535 -55.5007 -10.3294 76.8442 1.74259 39.9564 -0.226674 -3.31357 -19.7229 1.56056 2.38456 -12.2004 -16.1954 
89.6243 92.2099 42.8362 -63.1276 -49.6521 -157.891 -70.1915 0 88.8779 93.7042 73.3435 0.813219 4.79416 24.9376 -5.55827 -130.527 12.3795 -165.027 -150.707 46.2969 -172.734 0.173944 -14.7001 -29.6845 -129.961 23.9931 -59.461 -0.69258 0.22076 -109.845 0.420957 0.000575441 0.35866 -1.06987 8.33495 26.7387 -51.1945 -34.3633 153.714 10.9683 4.27879 110.646 0.58676 0.00033104 0.0646653 -31.3363 15.3868 94.8251 -4.26825 51.4816 -8.95448 -1.97174 -6.81198 -0.488228 1.93845 -7.09052 10.5063 -56.1517 -10.6106 77.5292 1.60948 40.1661 -1.34069 0.14921 -20.0253 1.74142 2.06774 -11.6801 -10.3793 
89.9463 91.7806 44.1945 -63.0896 -48.9839 -158.23 -70.1915 0 88.8779 94.0396 73.9124 -0.67671 4.04882 25.7855 -6.23831 -128.416 11.6895 -171.918 -144.559 45.7896 -178.445 0.260583 -14.8451 -27.0948 -128.905 25.5252 -59.8242 -0.57682 0.176451 -109.671 0.420957 0.000575441 0.35866 -0.953979 6.38233 29.3867 -53.0625 -32.3333 151.167 10.2825 4.24783 111.78 0.58676 0.00033104 0.0646653 -30.2127 15.9331 93.5041 -3.92414 50.8825 -7.22449 -1.75362 -6.86115 -0.510821 3.64575 -10.0322 10.8551 -56.8835 -10.1765 82.1401 1.1839 39.1814 0.114445 -2.24665 -18.7841 1.5539 2.1076 -16.5812 -6.80058 
90.4236 91.5319 45.5516 -62.3418 -45.6085 -158.41 -70.1915 0 88.8779 94.1485 73.7939 -2.89989 1.35483 25.3468 -4.25959 -130.68 12.034 -168.96 -148.439 46.6187 -174.517 0.607458 -12.8074 -26.8132 -128.195 22.5799 -58.9466 -1.3168 0.497105 -111.772 0.420957 0.000575441 0.35866 -0.978666 7.04322 28.1154 -50.9741 -32.6536 152.619 8.7937 3.71159 112.237 0.58676 0.00033104 0.0646653 -29.1538 18.3783 92.2571 -2.98081 47.2114 -3.65628 -2.10729 -4.31888 -0.245869 4.10907 -10.6571 9.90863 -55.1526 -8.97003 88.8844 0.693432 38.9001 6.9152 -6.30045 -15.8376 1.34807 2.35617 -22.6325 -13.1844 
